<svg width="33" height="23" viewBox="0 0 33 23" fill="none" xmlns="http://www.w3.org/2000/svg">
<path fill-rule="evenodd" clip-rule="evenodd" d="M15.0549 2.89783V3.61969C15.0549 5.82883 16.8458 7.61969 19.0549 7.61969H30.7137V5.89783C30.7137 4.24097 29.3706 2.89783 27.7137 2.89783H15.0549ZM30.7137 9.61969H19.0549C15.7412 9.61969 13.0549 6.9334 13.0549 3.61969V2.89783H5.53613C3.87928 2.89783 2.53613 4.24097 2.53613 5.89783V17.9101C2.53613 19.567 3.87928 20.9101 5.53613 20.9101H27.7137C29.3706 20.9101 30.7137 19.5669 30.7137 17.9101V9.61969ZM27.7137 0.897827C30.4751 0.897827 32.7137 3.1364 32.7137 5.89783V17.9101C32.7137 20.6715 30.4751 22.9101 27.7137 22.9101H5.53613C2.7747 22.9101 0.536133 20.6715 0.536133 17.9101V5.89783C0.536133 3.1364 2.77471 0.897827 5.53613 0.897827H27.7137Z" fill="#252525"/>
</svg>
