<svg width="33" height="23" viewBox="0 0 33 23" fill="none" xmlns="http://www.w3.org/2000/svg">
<path fill-rule="evenodd" clip-rule="evenodd" d="M14.6467 2.81921V3.54108C14.6467 5.75022 16.4376 7.54108 18.6467 7.54108H30.3055V5.81921C30.3055 4.16236 28.9624 2.81921 27.3055 2.81921H14.6467ZM30.3055 9.54108H18.6467C15.333 9.54108 12.6467 6.85479 12.6467 3.54108V2.81921H5.12793C3.47108 2.81921 2.12793 4.16236 2.12793 5.81921V17.8315C2.12793 19.4883 3.47107 20.8315 5.12792 20.8315H27.3055C28.9624 20.8315 30.3055 19.4883 30.3055 17.8315V9.54108ZM27.3055 0.819214C30.0669 0.819214 32.3055 3.05779 32.3055 5.81921V17.8315C32.3055 20.5929 30.0669 22.8315 27.3055 22.8315H5.12792C2.3665 22.8315 0.12793 20.5929 0.12793 17.8315V5.81921C0.12793 3.05779 2.36651 0.819214 5.12793 0.819214H27.3055Z" fill="white"/>
</svg>
