<svg width="115" height="25" viewBox="0 0 115 25" fill="none" xmlns="http://www.w3.org/2000/svg">
<path fill-rule="evenodd" clip-rule="evenodd" d="M14.5188 3.4939V4.21576C14.5188 6.4249 16.3097 8.21576 18.5188 8.21576H30.1776V6.4939C30.1776 4.83704 28.8344 3.4939 27.1776 3.4939H14.5188ZM30.1776 10.2158H18.5188C15.2051 10.2158 12.5188 7.52947 12.5188 4.21576V3.4939H5C3.34315 3.4939 2 4.83704 2 6.4939V18.5062C2 20.163 3.34314 21.5062 4.99999 21.5062H27.1776C28.8344 21.5062 30.1776 20.163 30.1776 18.5062V10.2158ZM27.1776 1.4939C29.939 1.4939 32.1776 3.73247 32.1776 6.4939V18.5062C32.1776 21.2676 29.939 23.5062 27.1776 23.5062H4.99999C2.23857 23.5062 0 21.2676 0 18.5062V6.4939C0 3.73247 2.23858 1.4939 5 1.4939H27.1776Z" fill="white"/>
<path d="M42.0577 20V6.64H43.4577V20H42.0577ZM39.6777 11.86V10.6H45.8177V11.86H39.6777ZM51.4941 20.2C50.6008 20.2 49.8008 19.9867 49.0941 19.56C48.3875 19.12 47.8275 18.5333 47.4141 17.8C47.0141 17.0667 46.8141 16.24 46.8141 15.32C46.8141 14.3867 47.0141 13.5533 47.4141 12.82C47.8275 12.0733 48.3875 11.4867 49.0941 11.06C49.8008 10.62 50.5941 10.4 51.4741 10.4C52.1941 10.4 52.8341 10.5467 53.3941 10.84C53.9675 11.12 54.4275 11.52 54.7741 12.04C55.1341 12.5467 55.3541 13.14 55.4341 13.82V16.76C55.3541 17.44 55.1341 18.04 54.7741 18.56C54.4275 19.08 53.9675 19.4867 53.3941 19.78C52.8341 20.06 52.2008 20.2 51.4941 20.2ZM51.7141 18.86C52.6875 18.86 53.4675 18.5333 54.0541 17.88C54.6541 17.2267 54.9541 16.3667 54.9541 15.3C54.9541 14.5933 54.8141 13.9733 54.5341 13.44C54.2675 12.8933 53.8875 12.4733 53.3941 12.18C52.9141 11.8733 52.3475 11.72 51.6941 11.72C51.0275 11.72 50.4341 11.8733 49.9141 12.18C49.4075 12.4867 49.0008 12.9133 48.6941 13.46C48.4008 13.9933 48.2541 14.6067 48.2541 15.3C48.2541 15.9933 48.4008 16.6067 48.6941 17.14C49.0008 17.6733 49.4141 18.0933 49.9341 18.4C50.4541 18.7067 51.0475 18.86 51.7141 18.86ZM54.8741 20V17.48L55.1541 15.16L54.8741 12.9V10.6H56.2741V20H54.8741ZM63.9734 20.2C63.2534 20.2 62.6067 20.0533 62.0334 19.76C61.46 19.4667 60.9867 19.0667 60.6134 18.56C60.2534 18.04 60.0334 17.44 59.9534 16.76V13.82C60.0334 13.1267 60.26 12.5267 60.6334 12.02C61.0067 11.5 61.48 11.1 62.0534 10.82C62.64 10.54 63.28 10.4 63.9734 10.4C64.84 10.4 65.62 10.62 66.3134 11.06C67.0067 11.4867 67.5534 12.0733 67.9534 12.82C68.3667 13.5533 68.5734 14.3867 68.5734 15.32C68.5734 16.24 68.3734 17.0667 67.9734 17.8C67.5734 18.5333 67.02 19.12 66.3134 19.56C65.62 19.9867 64.84 20.2 63.9734 20.2ZM63.7334 18.86C64.4 18.86 64.9867 18.7133 65.4934 18.42C66 18.1133 66.3934 17.6933 66.6734 17.16C66.9667 16.6133 67.1134 15.9933 67.1134 15.3C67.1134 14.5933 66.9667 13.9733 66.6734 13.44C66.3934 12.9067 66 12.4867 65.4934 12.18C64.9867 11.8733 64.4067 11.72 63.7534 11.72C63.1 11.72 62.52 11.8733 62.0134 12.18C61.52 12.4867 61.1334 12.9067 60.8534 13.44C60.5734 13.9733 60.4334 14.5933 60.4334 15.3C60.4334 15.9933 60.5734 16.6133 60.8534 17.16C61.1334 17.6933 61.52 18.1133 62.0134 18.42C62.5067 18.7133 63.08 18.86 63.7334 18.86ZM59.1134 20V5.84H60.5134V12.9L60.2334 15.16L60.5134 17.48V20H59.1134ZM77.6526 20V14.48C77.6526 13.6533 77.4059 12.9867 76.9126 12.48C76.4326 11.96 75.7926 11.7 74.9926 11.7C74.4459 11.7 73.9659 11.82 73.5526 12.06C73.1392 12.3 72.8126 12.6267 72.5726 13.04C72.3326 13.4533 72.2126 13.9267 72.2126 14.46L71.5726 14.1C71.5726 13.3933 71.7392 12.76 72.0726 12.2C72.4059 11.64 72.8526 11.2 73.4126 10.88C73.9859 10.56 74.6392 10.4 75.3726 10.4C76.0926 10.4 76.7326 10.5733 77.2926 10.92C77.8526 11.2667 78.2859 11.7333 78.5926 12.32C78.9126 12.9067 79.0726 13.5467 79.0726 14.24V20H77.6526ZM70.8126 20V10.6H72.2126V20H70.8126ZM86.0315 20.2C85.0848 20.2 84.2382 19.9867 83.4915 19.56C82.7448 19.1333 82.1515 18.5467 81.7115 17.8C81.2848 17.0533 81.0715 16.2133 81.0715 15.28C81.0715 14.36 81.2848 13.5333 81.7115 12.8C82.1382 12.0533 82.7182 11.4667 83.4515 11.04C84.1848 10.6133 85.0048 10.4 85.9115 10.4C86.7648 10.4 87.5182 10.5933 88.1715 10.98C88.8382 11.3667 89.3582 11.9067 89.7315 12.6C90.1182 13.28 90.3115 14.0667 90.3115 14.96C90.3115 15.0667 90.3048 15.1933 90.2915 15.34C90.2782 15.4733 90.2515 15.6333 90.2115 15.82H82.0715V14.62H89.4515L88.9515 15.06C88.9648 14.3667 88.8448 13.7733 88.5915 13.28C88.3515 12.7733 87.9982 12.3867 87.5315 12.12C87.0782 11.84 86.5248 11.7 85.8715 11.7C85.1915 11.7 84.5982 11.8467 84.0915 12.14C83.5848 12.4333 83.1848 12.8467 82.8915 13.38C82.6115 13.9 82.4715 14.52 82.4715 15.24C82.4715 15.96 82.6182 16.5933 82.9115 17.14C83.2182 17.6867 83.6382 18.1133 84.1715 18.42C84.7182 18.7267 85.3448 18.88 86.0515 18.88C86.6248 18.88 87.1515 18.78 87.6315 18.58C88.1115 18.3667 88.5182 18.0533 88.8515 17.64L89.7515 18.56C89.3115 19.08 88.7648 19.4867 88.1115 19.78C87.4715 20.06 86.7782 20.2 86.0315 20.2ZM94.956 20L91.336 10.6H92.796L95.656 18.4L95.136 18.42L97.976 10.6H98.796L101.636 18.42L101.116 18.4L103.956 10.6H105.436L101.796 20H100.976L98.076 12.3H98.676L95.796 20H94.956ZM109.904 20.2C109.397 20.2 108.91 20.1333 108.444 20C107.977 19.8533 107.55 19.6533 107.164 19.4C106.79 19.1467 106.464 18.8467 106.184 18.5L107.084 17.58C107.457 18.0333 107.877 18.3733 108.344 18.6C108.824 18.8133 109.357 18.92 109.944 18.92C110.57 18.92 111.057 18.8 111.404 18.56C111.764 18.32 111.944 17.9867 111.944 17.56C111.944 17.16 111.817 16.8467 111.564 16.62C111.31 16.3933 110.984 16.2133 110.584 16.08C110.197 15.9467 109.784 15.82 109.344 15.7C108.904 15.5667 108.484 15.4067 108.084 15.22C107.684 15.02 107.357 14.7467 107.104 14.4C106.864 14.0533 106.744 13.6 106.744 13.04C106.744 12.5067 106.87 12.0467 107.124 11.66C107.39 11.26 107.764 10.9533 108.244 10.74C108.737 10.5133 109.317 10.4 109.984 10.4C110.69 10.4 111.33 10.5267 111.904 10.78C112.477 11.0333 112.937 11.4067 113.284 11.9L112.384 12.8C112.104 12.44 111.75 12.1667 111.324 11.98C110.91 11.78 110.444 11.68 109.924 11.68C109.324 11.68 108.864 11.8 108.544 12.04C108.237 12.2667 108.084 12.5667 108.084 12.94C108.084 13.3 108.21 13.5867 108.464 13.8C108.717 14 109.037 14.1667 109.424 14.3C109.824 14.42 110.244 14.5467 110.684 14.68C111.124 14.8 111.544 14.9667 111.944 15.18C112.344 15.38 112.664 15.66 112.904 16.02C113.157 16.3667 113.284 16.84 113.284 17.44C113.284 18.28 112.977 18.9533 112.364 19.46C111.764 19.9533 110.944 20.2 109.904 20.2Z" fill="#EEEEEE"/>
</svg>
