<svg width="31" height="31" viewBox="0 0 31 31" fill="none" xmlns="http://www.w3.org/2000/svg">
<path fill-rule="evenodd" clip-rule="evenodd" d="M15.991 0.621216C16.3512 0.621216 16.6432 0.912296 16.6432 1.27136V4.88811C16.6432 5.24717 16.3512 5.53825 15.991 5.53825C15.6309 5.53825 15.3389 5.24717 15.3389 4.88811V1.27136C15.3389 0.912296 15.6309 0.621216 15.991 0.621216Z" fill="#2E2E2E"/>
<path fill-rule="evenodd" clip-rule="evenodd" d="M15.991 25.7041C16.3512 25.7041 16.6432 25.9952 16.6432 26.3542V29.971C16.6432 30.3301 16.3512 30.6211 15.991 30.6211C15.6309 30.6211 15.3389 30.3301 15.3389 29.971V26.3542C15.3389 25.9952 15.6309 25.7041 15.991 25.7041Z" fill="#2E2E2E"/>
<path fill-rule="evenodd" clip-rule="evenodd" d="M26.0479 15.6209C26.0479 15.2618 26.3398 14.9707 26.7 14.9707L30.3281 14.9707C30.6883 14.9707 30.9803 15.2618 30.9803 15.6209C30.9803 15.9799 30.6883 16.271 30.3281 16.271L26.7 16.271C26.3398 16.271 26.0479 15.9799 26.0479 15.6209Z" fill="#2E2E2E"/>
<path fill-rule="evenodd" clip-rule="evenodd" d="M0.980469 15.6209C0.980469 15.2618 1.27246 14.9707 1.63265 14.9707L5.26071 14.9707C5.6209 14.9707 5.91289 15.2618 5.91289 15.6209C5.91289 15.9799 5.6209 16.271 5.26071 16.271L1.63265 16.271C1.27246 16.271 0.980469 15.9799 0.980469 15.6209Z" fill="#2E2E2E"/>
<path fill-rule="evenodd" clip-rule="evenodd" d="M4.80003 4.42846C5.05472 4.17456 5.46766 4.17456 5.72235 4.42846L8.28778 6.98589C8.54247 7.23979 8.54247 7.65144 8.28778 7.90533C8.03309 8.15923 7.62015 8.15923 7.36546 7.90533L4.80003 5.34791C4.54534 5.09401 4.54534 4.68236 4.80003 4.42846Z" fill="#2E2E2E"/>
<path fill-rule="evenodd" clip-rule="evenodd" d="M4.80003 26.8141C5.05472 27.068 5.46766 27.068 5.72235 26.8141L8.28778 24.2567C8.54247 24.0028 8.54247 23.5911 8.28778 23.3372C8.03309 23.0833 7.62015 23.0833 7.36546 23.3372L4.80003 25.8946C4.54534 26.1485 4.54534 26.5602 4.80003 26.8141Z" fill="#2E2E2E"/>
<path fill-rule="evenodd" clip-rule="evenodd" d="M27.1609 4.42846C26.9062 4.17456 26.4933 4.17456 26.2386 4.42846L23.6732 6.98589C23.4185 7.23979 23.4185 7.65144 23.6732 7.90533C23.9279 8.15923 24.3408 8.15923 24.5955 7.90533L27.1609 5.34791C27.4156 5.09401 27.4156 4.68236 27.1609 4.42846Z" fill="#2E2E2E"/>
<path fill-rule="evenodd" clip-rule="evenodd" d="M27.1609 26.8141C26.9062 27.068 26.4933 27.068 26.2386 26.8141L23.6732 24.2567C23.4185 24.0028 23.4185 23.5911 23.6732 23.3372C23.9279 23.0833 24.3408 23.0833 24.5955 23.3372L27.1609 25.8946C27.4156 26.1485 27.4156 26.5602 27.1609 26.8141Z" fill="#2E2E2E"/>
<path fill-rule="evenodd" clip-rule="evenodd" d="M15.8755 22.8156C19.8615 22.8156 23.0927 19.5944 23.0927 15.6209C23.0927 11.6473 19.8615 8.4261 15.8755 8.4261C11.8895 8.4261 8.6582 11.6473 8.6582 15.6209C8.6582 19.5944 11.8895 22.8156 15.8755 22.8156ZM15.8755 23.9225C20.4747 23.9225 24.2031 20.2057 24.2031 15.6209C24.2031 11.036 20.4747 7.31921 15.8755 7.31921C11.2763 7.31921 7.54785 11.036 7.54785 15.6209C7.54785 20.2057 11.2763 23.9225 15.8755 23.9225Z" fill="#282828"/>
</svg>
