<svg width="31" height="31" viewBox="0 0 31 31" fill="none" xmlns="http://www.w3.org/2000/svg">
<path fill-rule="evenodd" clip-rule="evenodd" d="M15.2205 0.928711C15.5807 0.928711 15.8727 1.21979 15.8727 1.57886V5.1956C15.8727 5.55467 15.5807 5.84575 15.2205 5.84575C14.8603 5.84575 14.5684 5.55467 14.5684 5.1956V1.57886C14.5684 1.21979 14.8603 0.928711 15.2205 0.928711Z" fill="#979797"/>
<path fill-rule="evenodd" clip-rule="evenodd" d="M15.2205 26.0116C15.5807 26.0116 15.8727 26.3027 15.8727 26.6617V30.2785C15.8727 30.6376 15.5807 30.9286 15.2205 30.9286C14.8603 30.9286 14.5684 30.6376 14.5684 30.2785V26.6617C14.5684 26.3027 14.8603 26.0116 15.2205 26.0116Z" fill="#979797"/>
<path fill-rule="evenodd" clip-rule="evenodd" d="M25.2773 15.9283C25.2773 15.5693 25.5693 15.2782 25.9295 15.2782L29.5576 15.2782C29.9178 15.2782 30.2098 15.5693 30.2098 15.9283C30.2098 16.2874 29.9178 16.5785 29.5576 16.5785L25.9295 16.5785C25.5693 16.5785 25.2773 16.2874 25.2773 15.9283Z" fill="#979797"/>
<path fill-rule="evenodd" clip-rule="evenodd" d="M0.209961 15.9283C0.209961 15.5693 0.501951 15.2782 0.86214 15.2782L4.4902 15.2782C4.85039 15.2782 5.14238 15.5693 5.14238 15.9283C5.14238 16.2874 4.85039 16.5785 4.4902 16.5785L0.86214 16.5785C0.501951 16.5785 0.209961 16.2874 0.209961 15.9283Z" fill="#979797"/>
<path fill-rule="evenodd" clip-rule="evenodd" d="M4.02952 4.73596C4.28421 4.48206 4.69715 4.48206 4.95184 4.73596L7.51727 7.29338C7.77196 7.54728 7.77196 7.95893 7.51727 8.21283C7.26258 8.46673 6.84964 8.46673 6.59495 8.21283L4.02952 5.6554C3.77483 5.4015 3.77483 4.98985 4.02952 4.73596Z" fill="#979797"/>
<path fill-rule="evenodd" clip-rule="evenodd" d="M4.02952 27.1216C4.28421 27.3755 4.69715 27.3755 4.95184 27.1216L7.51727 24.5642C7.77196 24.3103 7.77196 23.8986 7.51727 23.6447C7.26258 23.3908 6.84964 23.3908 6.59495 23.6447L4.02952 26.2021C3.77483 26.456 3.77483 26.8677 4.02952 27.1216Z" fill="#979797"/>
<path fill-rule="evenodd" clip-rule="evenodd" d="M26.3904 4.73596C26.1357 4.48206 25.7228 4.48206 25.4681 4.73596L22.9027 7.29338C22.648 7.54728 22.648 7.95893 22.9027 8.21283C23.1573 8.46673 23.5703 8.46673 23.825 8.21283L26.3904 5.6554C26.6451 5.4015 26.6451 4.98985 26.3904 4.73596Z" fill="#979797"/>
<path fill-rule="evenodd" clip-rule="evenodd" d="M26.3904 27.1216C26.1357 27.3755 25.7228 27.3755 25.4681 27.1216L22.9027 24.5642C22.648 24.3103 22.648 23.8986 22.9027 23.6447C23.1573 23.3908 23.5703 23.3908 23.825 23.6447L26.3904 26.2021C26.6451 26.456 26.6451 26.8677 26.3904 27.1216Z" fill="#979797"/>
<path fill-rule="evenodd" clip-rule="evenodd" d="M14.5683 23.1251C18.5554 23.1251 21.7876 19.903 21.7876 15.9283C21.7876 11.9536 18.5554 8.73147 14.5683 8.73147C10.5812 8.73147 7.34895 11.9536 7.34895 15.9283C7.34895 19.903 10.5812 23.1251 14.5683 23.1251ZM14.5683 24.2323C19.1688 24.2323 22.8983 20.5145 22.8983 15.9283C22.8983 11.3421 19.1688 7.62427 14.5683 7.62427C9.96775 7.62427 6.23828 11.3421 6.23828 15.9283C6.23828 20.5145 9.96775 24.2323 14.5683 24.2323Z" fill="#D9D9D9"/>
</svg>
